<?xml version="1.0" standalone="no"?>
<!DOCTYPE svg PUBLIC "-//W3C//DTD SVG 20010904//EN"
 "http://www.w3.org/TR/2001/REC-SVG-20010904/DTD/svg10.dtd">
<svg version="1.0" xmlns="http://www.w3.org/2000/svg"
 width="1280.000000pt" height="984.000000pt" viewBox="0 0 1280.000000 984.000000"
 preserveAspectRatio="xMidYMid meet">
<metadata>
Created by potrace 1.15, written by Peter Selinger 2001-2017
</metadata>
<g transform="translate(0.000000,984.000000) scale(0.100000,-0.100000)"
fill="#000000" stroke="none">
<path d="M7355 9833 l-450 -3 -1380 -1385 -1380 -1385 -455 -30 c-250 -17
-457 -34 -461 -38 -4 -4 -137 -226 -297 -493 -160 -267 -296 -490 -304 -496
-22 -16 -712 -72 -1543 -124 -198 -12 -363 -25 -367 -28 -3 -3 -3 -67 0 -141
l7 -135 48 -9 47 -9 0 -77 c0 -99 -20 -167 -62 -206 -26 -24 -64 -40 -178 -73
-185 -54 -265 -83 -370 -138 -99 -51 -108 -57 -138 -100 -48 -68 -64 -167 -69
-438 l-5 -250 581 -96 582 -96 34 -33 c38 -37 85 -121 108 -195 11 -34 21
-140 31 -325 51 -914 67 -1235 64 -1315 -3 -87 -4 -90 -31 -103 -15 -7 -27
-17 -27 -21 0 -11 110 -494 113 -496 1 -1 40 -15 85 -30 81 -26 84 -28 78 -54
-18 -76 -18 -138 -1 -175 24 -50 52 -67 177 -109 96 -32 111 -34 149 -24 28 7
58 25 85 53 100 99 75 248 -51 305 -30 14 -34 19 -18 19 26 0 24 -9 58 270 16
131 21 206 15 208 -56 19 -63 86 -58 531 4 320 34 1019 54 1256 9 108 -37 106
515 15 266 -44 494 -82 507 -85 l22 -5 -2 -1042 -3 -1042 -35 -7 c-19 -4 -61
-12 -92 -19 l-58 -11 0 -84 0 -83 -110 -48 -110 -49 5 -45 c2 -25 7 -72 10
-106 l6 -61 -103 -22 c-112 -24 -205 -61 -214 -86 -9 -22 4 -63 26 -85 42 -42
172 -21 290 46 52 30 83 41 98 37 12 -3 22 -8 22 -12 0 -3 -32 -19 -70 -34
-109 -45 -145 -103 -98 -162 20 -25 25 -27 83 -23 72 4 155 43 245 114 54 42
58 44 91 33 19 -7 38 -15 42 -19 4 -4 -28 -30 -72 -59 -87 -57 -100 -79 -81
-137 13 -40 49 -61 115 -70 58 -8 79 6 148 98 81 110 75 108 263 52 87 -26
166 -47 174 -47 20 2 438 120 468 133 23 10 23 11 16 142 l-7 133 -59 72 -58
71 0 100 0 99 -98 20 -97 19 4 239 3 240 205 750 c113 413 207 753 209 756 2
3 32 1 67 -4 53 -7 116 -3 358 27 162 20 303 38 313 39 14 1 22 -6 26 -22 5
-21 18 -27 86 -45 183 -49 277 -126 380 -311 l61 -110 51 -990 c52 -999 53
-1044 20 -1083 -13 -15 -8 -54 33 -307 26 -159 48 -292 48 -295 1 -3 46 -23
101 -45 56 -22 102 -47 105 -56 3 -9 -2 -35 -10 -59 -48 -135 8 -225 172 -277
135 -42 191 -34 262 38 80 79 81 218 3 279 -14 11 -47 28 -74 37 -26 10 -48
21 -48 25 0 4 22 10 49 14 27 3 54 10 62 14 9 6 21 93 41 289 l28 280 -25 36
c-13 21 -28 53 -32 74 -10 43 -8 1133 2 1627 l7 350 27 11 c21 7 32 24 49 69
56 153 183 323 301 403 83 57 127 77 338 157 217 82 256 101 248 114 -10 16 6
18 249 40 259 24 239 17 367 136 131 123 237 186 397 235 123 38 277 65 444
79 791 67 1893 210 2463 319 27 5 51 8 52 7 3 -3 153 -1722 153 -1753 0 -17
-12 -29 -49 -48 -36 -18 -48 -29 -45 -42 2 -10 17 -92 34 -182 17 -91 31 -165
33 -167 1 -1 37 -19 79 -39 42 -21 80 -45 83 -53 3 -8 0 -40 -6 -71 -26 -122
6 -164 160 -216 l103 -34 48 24 c84 43 131 123 110 193 -20 73 -78 132 -129
132 -12 0 -21 6 -21 15 0 8 6 15 14 15 15 0 16 7 43 219 l17 143 -27 22 c-14
12 -29 35 -33 51 -6 35 151 1672 166 1727 18 65 97 212 132 245 29 28 62 41
238 92 113 32 259 77 325 98 l120 39 3 681 2 682 -27 19 c-169 118 -658 152
-1373 95 l-75 -6 148 106 c296 212 480 385 602 566 77 114 90 160 69 257 -7
36 -26 88 -41 117 -38 70 -141 172 -238 235 -129 84 -443 200 -684 253 -87 20
-142 22 -591 29 -423 6 -519 11 -660 29 -220 30 -439 73 -607 121 -186 52
-671 219 -767 263 -139 65 -293 182 -376 287 l-30 38 415 438 c387 408 415
440 415 473 0 20 3 46 6 59 l6 22 -593 -2 c-327 -2 -796 -4 -1044 -5z m-3871
-6130 c7 -5 -1 -2032 -8 -2040 0 -1 -17 2 -36 6 -29 6 -35 12 -41 41 -4 19 -9
480 -12 1024 l-6 988 47 -7 c26 -4 51 -9 56 -12z m531 -84 c77 -12 142 -24
144 -25 2 -2 -75 -282 -170 -623 l-174 -619 -3 616 c-1 339 0 632 3 651 6 30
9 33 33 28 15 -3 90 -15 167 -28z"/>
</g>
</svg>
